<svg xmlns="http://www.w3.org/2000/svg" viewBox="0 0 1200 630" width="1200" height="630">
  <defs>
    <!-- Architectural Coordinate Grid Pattern -->
    <pattern id="arch-grid" width="48" height="48" patternUnits="userSpaceOnUse" x="-1" y="-1">
      <path d="M.5 48V.5H48" fill="none" stroke="#27272A" stroke-width="0.75" stroke-opacity="0.45"/>
      <path d="M24 21v6M21 24h6" fill="none" stroke="#3F3F46" stroke-width="0.75" stroke-opacity="0.35"/>
    </pattern>

    <!-- Radial Mask for Grid Fadeout -->
    <radialGradient id="grid-fade" cx="50%" cy="30%" r="65%">
      <stop offset="0%" stop-color="#FFFFFF" stop-opacity="0.8"/>
      <stop offset="50%" stop-color="#FFFFFF" stop-opacity="0.3"/>
      <stop offset="100%" stop-color="#000000" stop-opacity="0"/>
    </radialGradient>
    <mask id="grid-mask">
      <rect width="1200" height="630" fill="url(#grid-fade)"/>
    </mask>

    <!-- Volumetric Overhead Ambient Cone -->
    <radialGradient id="ambient-light" cx="50%" cy="0%" r="60%">
      <stop offset="0%" stop-color="#FFFFFF" stop-opacity="0.08"/>
      <stop offset="40%" stop-color="#FFFFFF" stop-opacity="0.02"/>
      <stop offset="100%" stop-color="#000000" stop-opacity="0"/>
    </radialGradient>

    <!-- Metallic Grayscale Linear Gradient for Subheadline -->
    <linearGradient id="metallic-gradient" x1="0" y1="0" x2="0" y2="100%" gradientUnits="userSpaceOnUse">
      <stop offset="0%" stop-color="#FFFFFF"/>
      <stop offset="50%" stop-color="#D4D4D8"/>
      <stop offset="100%" stop-color="#71717A"/>
    </linearGradient>

    <!-- Card Glow Gradient -->
    <linearGradient id="card-border-glow" x1="0%" y1="0%" x2="100%" y2="100%">
      <stop offset="0%" stop-color="#3F3F46" stop-opacity="0.8"/>
      <stop offset="50%" stop-color="#27272A" stop-opacity="0.4"/>
      <stop offset="100%" stop-color="#18181B" stop-opacity="0.8"/>
    </linearGradient>
  </defs>

  <!-- Deep Obsidian Slate Canvas -->
  <rect width="1200" height="630" fill="#09090B"/>

  <!-- Architectural Background Grid with Coordinates -->
  <rect width="1200" height="630" fill="url(#arch-grid)" mask="url(#grid-mask)"/>

  <!-- Concentric Kinetic Orbit Rings (Exact HeroBackdrop geometry) -->
  <ellipse cx="600" cy="-60" rx="600" ry="380" fill="none" stroke="#27272A" stroke-width="1" stroke-opacity="0.4"/>
  <ellipse cx="600" cy="-30" rx="460" ry="290" fill="none" stroke="#3F3F46" stroke-width="1" stroke-dasharray="6 6" stroke-opacity="0.35"/>
  <ellipse cx="600" cy="0" rx="310" ry="195" fill="none" stroke="#27272A" stroke-width="1" stroke-opacity="0.5"/>

  <!-- Volumetric Overhead Luminous Glow -->
  <rect width="1200" height="630" fill="url(#ambient-light)"/>

  <!-- Precision Corner Coordinate Crosshairs -->
  <g stroke="#52525B" stroke-width="1" opacity="0.6">
    <path d="M 40 48 V 32 M 32 40 H 48"/>
    <path d="M 1160 48 V 32 M 1152 40 H 1168"/>
    <path d="M 40 598 V 582 M 32 590 H 48"/>
    <path d="M 1160 598 V 582 M 1152 590 H 1168"/>
  </g>

  <!-- ──────────────────────── TOP BAR ──────────────────────── -->
  <!-- Eyebrow Pill (Matching Homepage Top Announcement) -->
  <g transform="translate(64, 48)">
    <rect width="360" height="34" rx="17" fill="#18181B" stroke="#27272A" stroke-width="1" fill-opacity="0.8"/>
    
    <!-- Inner NEW badge -->
    <rect x="3" y="3" width="56" height="28" rx="14" fill="#FFFFFF"/>
    <text x="31" y="21" fill="#09090B" font-family="-apple-system, BlinkMacSystemFont, 'SF Pro Text', 'Segoe UI', Roboto, sans-serif" font-size="10" font-weight="900" letter-spacing="1.2" text-anchor="middle">NEW</text>
    
    <!-- Eyebrow Text -->
    <text x="72" y="21.5" fill="#E4E4E7" font-family="ui-monospace, SFMono-Regular, Menlo, Monaco, monospace" font-size="11.5" font-weight="600">20 Primitives · 13 Native Ecosystems</text>
  </g>

  <!-- Top Right Institutional Moniker -->
  <g transform="translate(1136, 48)">
    <text x="0" y="23" fill="#A1A1AA" font-family="ui-monospace, SFMono-Regular, Menlo, Monaco, monospace" font-size="12" font-weight="600" letter-spacing="1.5" text-anchor="end">A FLEECT ARTIFACT.</text>
  </g>

  <!-- ──────────────────────── MAIN HERO SECTION ──────────────────────── -->
  <!-- Left Side: Iconic Stepped Kinetic Monogram inside Precision Studio Container -->
  <g transform="translate(64, 128)">
    <!-- Ambient Logo Glow -->
    <circle cx="115" cy="115" r="130" fill="#FFFFFF" fill-opacity="0.04" filter="blur(30px)"/>

    <!-- Precision Card Frame for Monogram -->
    <rect width="230" height="230" rx="28" fill="#121216" stroke="url(#card-border-glow)" stroke-width="1.5"/>

    <!-- Subtle Inner Grid Inside Logo Card -->
    <path d="M 0 115 H 230 M 115 0 V 230" stroke="#27272A" stroke-width="0.75" stroke-opacity="0.3"/>

    <!-- Exact Kinetic Stepped Monogram (Path bounds 18..84 x 16..97 centered at cx=115, cy=115) -->
    <g transform="translate(115, 115) scale(1.65) translate(-51, -56.5)">
      <path d="M 24 16 H 84 L 72 28 H 48 A 4 4 0 0 0 44 32 V 41 A 4 4 0 0 0 48 45 H 84 L 72 68 H 48 A 4 4 0 0 0 44 72 V 81 A 4 4 0 0 0 48 85 H 84 L 72 97 H 24 A 6 6 0 0 1 18 91 V 73 A 6 6 0 0 1 24 67 H 32 A 5 5 0 0 0 37 62 V 51 A 5 5 0 0 0 32 46 H 24 A 6 6 0 0 1 18 40 V 22 A 6 6 0 0 1 24 16 Z" fill="#FFFFFF"/>
    </g>

    <!-- Sub-label underneath card -->
    <g transform="translate(0, 246)">
      <text x="115" y="16" fill="#71717A" font-family="ui-monospace, SFMono-Regular, Menlo, Monaco, monospace" font-size="10.5" font-weight="600" letter-spacing="1.2" text-anchor="middle">EKM KINETIC ENGINE</text>
    </g>
  </g>

  <!-- Right Side: Headline Typography & Value Proposition -->
  <g transform="translate(340, 138)">
    <!-- Product Brand Name with Beta Badge Pill (Pure Outlined Vector Wordmark) -->
    <g>
      <g transform="translate(0, 16) scale(0.895)">
        <path d="M0.0 27.36V2.280000000000001H6.156000000000001V27.36ZM4.446 27.36V22.42H19.912V27.36ZM4.446 16.948V12.502H17.974V16.948ZM4.446 7.181999999999999V2.280000000000001H19.798V7.181999999999999Z M20.291999999999998 27.36 26.904 17.328 20.33 7.295999999999999H27.36L30.665999999999997 14.668H31.387999999999998L34.694 7.295999999999999H41.724L35.111999999999995 17.328L41.762 27.36H34.769999999999996L31.387999999999998 19.912H30.665999999999997L27.36 27.36Z M43.016 27.36V14.592V0.0H49.134V6.27Q49.134 7.030000000000001 49.077 7.847000000000001Q49.019999999999996 8.664000000000001 48.887 9.519Q48.754 10.373999999999999 48.620999999999995 11.248Q48.488 12.122 48.297999999999995 12.958H49.209999999999994Q49.742 11.096 50.53999999999999 9.709Q51.337999999999994 8.322 52.629999999999995 7.542999999999999Q53.922 6.763999999999999 55.93599999999999 6.763999999999999Q59.507999999999996 6.763999999999999 61.27499999999999 9.253Q63.041999999999994 11.741999999999999 63.041999999999994 16.91V27.36H56.885999999999996V17.936Q56.885999999999996 14.858 55.992999999999995 13.318999999999999Q55.099999999999994 11.78 53.275999999999996 11.78Q51.87 11.78 50.958 12.654Q50.04599999999999 13.528 49.589999999999996 14.991Q49.134 16.454 49.134 18.240000000000002V27.36Z M72.80799999999999 27.892Q69.236 27.892 67.43100000000001 25.479Q65.626 23.066 65.626 18.125999999999998V7.295999999999999H71.782V17.328Q71.782 20.14 72.618 21.527Q73.454 22.914 75.164 22.914Q76.19 22.914 76.931 22.401Q77.672 21.887999999999998 78.185 20.957Q78.698 20.026 78.945 18.810000000000002Q79.192 17.594 79.192 16.15V7.295999999999999H85.31V19.228V27.36H80.446L80.332 21.166H79.572Q79.002 23.522 78.14699999999999 25.023Q77.292 26.524 76.0 27.208Q74.708 27.892 72.80799999999999 27.892Z M88.502 27.36V14.402V7.295999999999999H93.328L93.404 13.186H94.164Q94.696 11.02 95.57 9.594999999999999Q96.444 8.169999999999998 97.69800000000001 7.466999999999999Q98.952 6.763999999999999 100.624 6.763999999999999Q102.372 6.763999999999999 103.531 7.504999999999999Q104.69 8.245999999999999 105.374 9.671Q106.05799999999999 11.096 106.286 13.186H106.932Q107.53999999999999 10.943999999999999 108.52799999999999 9.519Q109.516 8.094000000000001 110.884 7.429Q112.252 6.763999999999999 113.848 6.763999999999999Q115.55799999999999 6.763999999999999 116.83099999999999 7.429Q118.104 8.094000000000001 118.959 9.405000000000001Q119.814 10.716000000000001 120.232 12.673Q120.65 14.629999999999999 120.65 17.214V27.36H114.494V17.974Q114.494 15.959999999999999 114.17099999999999 14.629999999999999Q113.848 13.299999999999999 113.164 12.635Q112.48 11.97 111.416 11.97Q110.2 11.97 109.345 12.768Q108.49000000000001 13.565999999999999 108.034 14.991Q107.578 16.416 107.578 18.201999999999998V27.36H101.574V18.088Q101.574 15.998 101.213 14.668Q100.852 13.338 100.149 12.654Q99.446 11.97 98.382 11.97Q97.166 11.97 96.33 12.768Q95.494 13.565999999999999 95.057 14.991Q94.62 16.416 94.62 18.201999999999998V27.36Z M128.288 27.892Q126.616 27.892 125.324 27.227Q124.032 26.562 123.31 25.289Q122.588 24.016 122.588 22.192Q122.588 20.482 123.25299999999999 19.361Q123.91799999999999 18.240000000000002 125.191 17.575000000000003Q126.464 16.91 128.25 16.473Q130.036 16.036 132.316 15.693999999999999Q133.418 15.504 134.159 15.332999999999998Q134.9 15.161999999999999 135.28 14.782Q135.66 14.402 135.66 13.68Q135.66 12.73 134.976 12.046Q134.292 11.362 132.772 11.362Q131.708 11.362 130.853 11.742Q129.998 12.122 129.39 12.844Q128.782 13.565999999999999 128.478 14.592L123.082 12.996Q123.576 11.4 124.469 10.222000000000001Q125.362 9.044 126.616 8.265Q127.87 7.486000000000001 129.485 7.125Q131.1 6.763999999999999 132.924 6.763999999999999Q135.964 6.763999999999999 137.88299999999998 7.732999999999999Q139.802 8.701999999999998 140.733 10.735Q141.664 12.768 141.664 15.959999999999999V19.038Q141.664 20.406 141.721 21.793Q141.778 23.18 141.873 24.567Q141.968 25.954 142.12 27.36H136.724Q136.572 26.486 136.42000000000002 25.250999999999998Q136.268 24.016 136.192 22.724H135.47Q134.938 24.168 133.93099999999998 25.365000000000002Q132.924 26.562 131.49900000000002 27.227Q130.074 27.892 128.288 27.892ZM131.062 23.56Q131.746 23.56 132.449 23.313Q133.152 23.066 133.798 22.628999999999998Q134.444 22.192 134.976 21.546Q135.508 20.9 135.774 20.14L135.698 17.137999999999998L136.534 17.328Q135.812 17.784 134.938 18.049999999999997Q134.064 18.316 133.171 18.467999999999996Q132.278 18.619999999999997 131.423 18.790999999999997Q130.56799999999998 18.962 129.903 19.228Q129.238 19.494 128.858 19.95Q128.478 20.406 128.478 21.204Q128.478 22.268 129.2 22.914Q129.922 23.56 131.062 23.56Z" fill="#FFFFFF"/>
      </g>
      <rect x="138" y="18" width="46" height="22" rx="4" fill="#18181B" stroke="#3F3F46" stroke-width="1"/>
      <text x="161" y="33" fill="#A1A1AA" font-family="ui-monospace, SFMono-Regular, Menlo, Monaco, monospace" font-size="11" font-weight="700" text-anchor="middle">Beta</text>
    </g>

    <!-- Homepage Display Headline (Exact copy & metallic gradient) -->
    <text x="0" y="112" fill="#FFFFFF" font-family="-apple-system, BlinkMacSystemFont, 'SF Pro Display', 'Segoe UI', Roboto, sans-serif" font-size="56" font-weight="900" letter-spacing="-2.2">Physics you can feel.</text>
    <text x="0" y="174" fill="url(#metallic-gradient)" font-family="-apple-system, BlinkMacSystemFont, 'SF Pro Display', 'Segoe UI', Roboto, sans-serif" font-size="56" font-weight="900" letter-spacing="-2.2">Code you actually own.</text>

    <!-- Supporting Narrative Subtitle -->
    <text x="0" y="222" fill="#A1A1AA" font-family="-apple-system, BlinkMacSystemFont, 'SF Pro Text', 'Segoe UI', Roboto, sans-serif" font-size="18" font-weight="400" letter-spacing="-0.2">Zero runtime lock-in · 120 FPS compositor execution · Pure source ownership</text>
  </g>

  <!-- ──────────────────────── BOTTOM TELEMETRY DOCK ──────────────────────── -->
  <!-- Horizontal Horizon Divider -->
  <line x1="64" y1="440" x2="1136" y2="440" stroke="#27272A" stroke-width="1"/>

  <!-- Telemetry Badges & Terminal Action -->
  <g transform="translate(64, 464)">
    <!-- Pill 1: Zero Runtime Deps -->
    <g transform="translate(0, 0)">
      <rect width="185" height="42" rx="10" fill="#18181B" stroke="#27272A" stroke-width="1.2"/>
      <text x="18" y="26" fill="#F43F5E" font-size="13">⚡</text>
      <text x="38" y="25.5" fill="#E4E4E7" font-family="ui-monospace, SFMono-Regular, Menlo, Monaco, monospace" font-size="12" font-weight="600">0 Runtime Deps</text>
    </g>

    <!-- Pill 2: 120Hz Spring Physics -->
    <g transform="translate(200, 0)">
      <rect width="195" height="42" rx="10" fill="#18181B" stroke="#27272A" stroke-width="1.2"/>
      <text x="18" y="26" fill="#10B981" font-size="13">Ω</text>
      <text x="38" y="25.5" fill="#E4E4E7" font-family="ui-monospace, SFMono-Regular, Menlo, Monaco, monospace" font-size="12" font-weight="600">120Hz Compositor</text>
    </g>

    <!-- Pill 3: 13 Native Targets -->
    <g transform="translate(410, 0)">
      <rect width="185" height="42" rx="10" fill="#18181B" stroke="#27272A" stroke-width="1.2"/>
      <text x="18" y="26" fill="#6366F1" font-size="13">❖</text>
      <text x="38" y="25.5" fill="#E4E4E7" font-family="ui-monospace, SFMono-Regular, Menlo, Monaco, monospace" font-size="12" font-weight="600">13 Native Stacks</text>
    </g>

    <!-- Terminal Command Snippet Box -->
    <g transform="translate(610, 0)">
      <rect width="250" height="42" rx="10" fill="#0F0F13" stroke="#27272A" stroke-width="1.2"/>
      <text x="16" y="26" fill="#10B981" font-family="ui-monospace, SFMono-Regular, Menlo, Monaco, monospace" font-size="13" font-weight="700">$</text>
      <text x="32" y="25.5" fill="#A1A1AA" font-family="ui-monospace, SFMono-Regular, Menlo, Monaco, monospace" font-size="12.5" font-weight="600">npx exhuma add</text>
      <text x="162" y="25.5" fill="#3B82F6" font-family="ui-monospace, SFMono-Regular, Menlo, Monaco, monospace" font-size="12.5" font-weight="600">tilt-card</text>
    </g>

    <!-- Production Domain Stamp -->
    <g transform="translate(1072, 0)">
      <text x="0" y="27" fill="#FFFFFF" font-family="ui-monospace, SFMono-Regular, Menlo, Monaco, monospace" font-size="20" font-weight="800" letter-spacing="-0.5" text-anchor="end">exhuma-ui.com</text>
    </g>
  </g>

  <!-- Bottom Sub-status Hairline -->
  <g transform="translate(64, 552)">
    <text x="0" y="16" fill="#52525B" font-family="ui-monospace, SFMono-Regular, Menlo, Monaco, monospace" font-size="11" font-weight="500">React · Next.js · Vue · Svelte · Angular · Solid · Astro · Blade · WordPress · Web Components</text>
  </g>
</svg>